<svg width="49" height="49" viewBox="0 0 49 49" fill="none" xmlns="http://www.w3.org/2000/svg">
<g id="basket">
<path id="Vector" d="M11.4844 29.0938H14.5469V41.3438H11.4844V29.0938ZM19.1406 29.0938H22.2031V41.3438H19.1406V29.0938ZM26.7969 29.0938H29.8594V41.3438H26.7969V29.0938ZM34.4531 29.0938H37.5156V41.3438H34.4531V29.0938Z" fill="white"/>
<path id="Vector_2" d="M45.3328 16.0781L37.713 1.53125H34.2558L41.8756 16.0781H7.12443L14.7442 1.53125H11.287L3.66725 16.0781H1.53125V26.746L5.6327 47.4688H43.3647L47.4688 26.9485V16.0781H45.3328ZM44.4062 26.6453L40.854 44.4062H8.14855L4.59375 26.4458V26.0312H44.4062V26.6453ZM44.4062 22.9688H4.59375V19.1406H44.4062V22.9688Z" fill="white"/>
</g>
</svg>
